<?xml version="1.0" encoding="UTF-8"?>
<svg width="512px" height="512px" viewBox="0 0 512 512" version="1.1" xmlns="http://www.w3.org/2000/svg" xmlns:xlink="http://www.w3.org/1999/xlink">
    <!-- Generator: Sketch 55.2 (78181) - https://sketchapp.com -->
    <title>starter</title>
    <desc>Created with Sketch.</desc>
    <g id="starter" stroke="none" stroke-width="1" fill="none" fill-rule="evenodd">
        <g id="starter-logo" transform="translate(16.000000, 16.000000)" fill="#9C26B0" fill-rule="nonzero">
            <rect id="Rectangle" x="0" y="0" width="480" height="480"></rect>
        </g>
        <path d="M108,89 L108,366.333651 C108,397.629612 133.360001,423 164.643149,423 C171.502692,423 178.305192,421.753527 184.71942,419.321274 L367.905566,349.857729 C396.76781,338.913267 411.296675,306.633973 400.356694,277.759907 C396.518495,267.629686 389.82111,258.833184 381.078796,252.439864 L287.487018,183.995492 L256.288002,226.692413 L349.879779,295.136784 C350.352336,295.482369 350.714357,295.957856 350.921827,296.505435 C351.513178,298.066195 350.727834,299.811022 349.167712,300.402615 L165.981567,369.86616 C165.553952,370.02831 165.100451,370.111408 164.643149,370.111408 C162.557605,370.111408 160.866939,368.420049 160.866939,366.333651 L160.866939,89 L108,89 Z" id="Path-4" fill="#FFFFFF" fill-rule="nonzero"></path>
    </g>
</svg>